<svg width="229" height="75" viewBox="0 0 229 75" fill="none" xmlns="http://www.w3.org/2000/svg">
<path d="M66.6544 12.9306H75.2133V50.1124H66.461L66.6544 12.9306Z" fill="white"/>
<path d="M119.652 49.7739H127.437L127.388 22.4074L136.624 49.919L144.313 50.0157L153.21 22.8425L153.258 50.3058H161.576V12.9306L149.438 12.979L140.734 38.9434L131.789 12.979H119.652V49.7739Z" fill="white"/>
<path d="M196.053 13.8492V22.1656C196.053 22.1656 184.931 15.9767 178.113 24.2447C171.295 32.5127 178.79 49.242 195.473 41.1191V48.8552C195.473 48.8552 169.216 57.5584 167.233 32.3193C167.233 32.2709 166.508 7.22519 196.053 13.8492Z" fill="white"/>
<path d="M102.486 13.124L92.7178 12.9789L78.8882 49.7255H88.4626L91.0738 41.5543H103.549L106.402 49.9673L115.396 49.7255L102.486 13.124ZM92.6695 35.317L97.2149 19.8447L102.002 35.317H92.6695Z" fill="white"/>
<path d="M66.2192 60.3143C67.0412 60.1693 68.2018 60.0726 69.5557 60.0726C71.1998 60.0726 72.3603 60.3143 73.134 60.9429C73.811 61.4747 74.1494 62.2484 74.1494 63.2637C74.1494 64.6659 73.134 65.6329 72.1669 65.9714V66.0197C72.9406 66.3098 73.3758 67.0351 73.6659 68.0988C74.0044 69.3559 74.3429 70.8065 74.5363 71.2416H71.9735C71.8284 70.9032 71.5383 70.0328 71.1998 68.679C70.9096 67.2768 70.4261 66.9384 69.3623 66.89H68.6369V71.2416H66.1708V60.3143H66.2192ZM68.7337 65.1011H69.7008C70.958 65.1011 71.6833 64.4725 71.6833 63.5055C71.6833 62.4901 71.0064 61.9583 69.8458 61.9583C69.2172 61.9583 68.8787 62.0066 68.6853 62.055V65.1011H68.7337Z" fill="white"/>
<path d="M77.8728 68.0505C77.9212 69.0658 78.985 69.5977 80.1455 69.5977C81.0159 69.5977 81.6929 69.501 82.3699 69.2592L82.7083 70.9515C81.8863 71.29 80.8708 71.4834 79.807 71.4834C77.0508 71.4834 75.5034 69.8878 75.5034 67.3736C75.5034 65.3428 76.7607 63.0703 79.5653 63.0703C82.1764 63.0703 83.1435 65.1011 83.1435 67.0834C83.1435 67.5186 83.0952 67.9054 83.0468 68.0505H77.8728ZM80.8225 66.3098C80.8225 65.6813 80.5807 64.6659 79.4202 64.6659C78.3564 64.6659 77.9212 65.6329 77.8728 66.3098H80.8225Z" fill="white"/>
<path d="M84.6425 65.9231C84.6425 64.8593 84.5941 63.989 84.5941 63.2154H86.7701L86.8668 64.3275H86.9152C87.4954 63.5055 88.4142 63.022 89.6231 63.022C91.3638 63.022 92.9596 64.5692 92.9596 67.1318C92.9596 70.0812 91.1221 71.4351 89.2846 71.4351C88.3175 71.4351 87.5438 71.0483 87.2053 70.5164H87.1569V74.5295H84.6425V65.9231ZM87.1086 67.8087C87.1086 68.0021 87.1086 68.1472 87.1569 68.3406C87.302 69.0175 87.8823 69.5494 88.6076 69.5494C89.6714 69.5494 90.3484 68.6307 90.3484 67.2769C90.3484 65.9714 89.7681 65.0044 88.656 65.0044C87.9306 65.0044 87.302 65.5363 87.1569 66.2615C87.1086 66.4066 87.1086 66.5516 87.1086 66.6967V67.8087Z" fill="white"/>
<path d="M102.05 68.6791C102.05 69.7428 102.099 70.6131 102.099 71.2417H99.9712L99.8745 70.1296H99.8261C99.536 70.6131 98.7623 71.4351 97.3116 71.4351C95.6676 71.4351 94.4587 70.4197 94.4587 67.9054V63.1671H96.9731V67.5186C96.9731 68.6791 97.36 69.4043 98.2304 69.4043C98.9073 69.4043 99.3425 68.9208 99.4876 68.534C99.536 68.389 99.5843 68.1956 99.5843 68.0022V63.2154H102.099V68.6791H102.05ZM100.987 59.7342L98.9557 62.2484H97.2633L98.6656 59.7342H100.987Z" fill="white"/>
<path d="M104.081 59.5891H106.596V64.1824H106.644C107.128 63.5055 107.95 63.022 109.062 63.022C110.996 63.022 112.398 64.6175 112.35 67.0834C112.35 69.9845 110.513 71.435 108.675 71.435C107.756 71.435 106.838 71.0966 106.257 70.1295H106.209L106.112 71.2416H103.985C104.033 70.7098 104.033 69.7427 104.033 68.8241V59.5891H104.081ZM106.596 67.8571C106.596 68.0021 106.596 68.1472 106.644 68.2922C106.789 68.9691 107.369 69.501 108.095 69.501C109.159 69.501 109.836 68.679 109.836 67.2285C109.836 65.9714 109.255 65.0044 108.095 65.0044C107.418 65.0044 106.789 65.5362 106.644 66.2615C106.596 66.4065 106.596 66.5516 106.596 66.745V67.8571Z" fill="white"/>
<path d="M113.946 59.5891H116.46V71.29H113.946V59.5891Z" fill="white"/>
<path d="M121.054 60.9913C121.054 61.6682 120.522 62.2484 119.7 62.2484C118.926 62.2484 118.394 61.6682 118.394 60.9913C118.394 60.266 118.926 59.7342 119.748 59.7342C120.522 59.7342 121.006 60.266 121.054 60.9913ZM118.443 71.29V63.2154H120.957V71.29H118.443Z" fill="white"/>
<path d="M129.033 71.0482C128.597 71.2416 127.727 71.4351 126.808 71.4351C124.197 71.4351 122.553 69.8395 122.553 67.3252C122.553 64.956 124.149 63.022 127.147 63.022C127.824 63.022 128.549 63.1187 129.081 63.3121L128.694 65.1495C128.404 65.0044 127.969 64.9077 127.292 64.9077C125.986 64.9077 125.116 65.8264 125.116 67.1802C125.116 68.6307 126.083 69.4527 127.34 69.4527C127.92 69.4527 128.404 69.356 128.791 69.2109L129.033 71.0482Z" fill="white"/>
<path d="M137.156 69.3076C137.156 70.0812 137.205 70.8065 137.301 71.2416H135.029L134.884 70.4197H134.835C134.303 71.0482 133.481 71.3867 132.514 71.3867C130.87 71.3867 129.903 70.1779 129.903 68.9208C129.903 66.8417 131.789 65.8263 134.642 65.8263V65.7296C134.642 65.2945 134.4 64.6659 133.191 64.6659C132.369 64.6659 131.499 64.956 130.967 65.2945L130.483 63.6989C131.063 63.4088 132.127 62.9736 133.626 62.9736C136.334 62.9736 137.156 64.5692 137.156 66.4549V69.3076ZM134.738 67.4703C133.433 67.4703 132.417 67.7604 132.417 68.7274C132.417 69.3559 132.853 69.6944 133.385 69.6944C134.013 69.6944 134.545 69.2592 134.69 68.7757C134.738 68.6307 134.738 68.4856 134.738 68.3406V67.4703Z" fill="white"/>
<path d="M142.572 60.3143C143.491 60.1693 144.7 60.0726 145.957 60.0726C148.084 60.0726 149.487 60.4594 150.502 61.2813C151.663 62.1517 152.388 63.5055 152.388 65.4879C152.388 67.6153 151.614 69.0658 150.551 69.9845C149.39 70.9515 147.601 71.435 145.425 71.435C144.119 71.435 143.201 71.3383 142.572 71.29V60.3143ZM145.086 69.3559C145.28 69.4043 145.667 69.4043 145.957 69.4043C148.23 69.4043 149.729 68.1472 149.729 65.5362C149.729 63.2154 148.375 62.0066 146.199 62.0066C145.667 62.0066 145.28 62.055 145.038 62.1033V69.3559H145.086Z" fill="white"/>
<path d="M161.914 67.1318C161.914 70.0812 159.835 71.435 157.659 71.435C155.289 71.435 153.5 69.8878 153.5 67.2769C153.5 64.6659 155.193 62.9736 157.804 62.9736C160.27 63.022 161.914 64.7143 161.914 67.1318ZM156.063 67.2285C156.063 68.6307 156.643 69.646 157.707 69.646C158.674 69.646 159.303 68.679 159.303 67.2285C159.303 66.0197 158.819 64.811 157.707 64.811C156.547 64.811 156.063 66.0681 156.063 67.2285Z" fill="white"/>
<path d="M163.461 65.778C163.461 64.7626 163.413 63.9406 163.413 63.2154H165.541L165.637 64.2791H165.686C166.024 63.7472 166.75 62.9736 168.104 62.9736C169.167 62.9736 169.941 63.5055 170.328 64.3758H170.376C170.666 63.9407 171.053 63.6022 171.44 63.4088C171.875 63.167 172.359 63.022 172.987 63.022C174.535 63.022 175.695 64.0857 175.695 66.5516V71.29H173.278V66.8901C173.278 65.7296 172.891 65.0527 172.069 65.0527C171.488 65.0527 171.102 65.4395 170.908 65.923C170.86 66.1164 170.811 66.3582 170.811 66.5516V71.2416H168.394V66.6966C168.394 65.6813 168.055 65.0044 167.233 65.0044C166.605 65.0044 166.218 65.4879 166.073 65.8747C165.976 66.0681 165.976 66.3098 165.976 66.5032V71.1933H163.558V65.778H163.461Z" fill="white"/>
<path d="M180.192 60.9913C180.192 61.6682 179.66 62.2484 178.838 62.2484C178.065 62.2484 177.533 61.6682 177.533 60.9913C177.533 60.266 178.065 59.7342 178.887 59.7342C179.709 59.7342 180.192 60.266 180.192 60.9913ZM177.63 71.29V63.2154H180.144V71.29H177.63Z" fill="white"/>
<path d="M182.127 65.778C182.127 64.7626 182.078 63.9407 182.078 63.2154H184.254L184.351 64.3275H184.399C184.738 63.7956 185.511 63.022 186.865 63.022C188.509 63.022 189.767 64.1341 189.767 66.5033V71.2417H187.252V66.7934C187.252 65.778 186.914 65.0528 185.995 65.0528C185.318 65.0528 184.883 65.5363 184.689 65.9714C184.641 66.1165 184.593 66.3582 184.593 66.6V71.2417H182.078V65.778H182.127Z" fill="white"/>
<path d="M194.36 60.9913C194.36 61.6682 193.828 62.2484 193.006 62.2484C192.233 62.2484 191.701 61.6682 191.701 60.9913C191.701 60.266 192.233 59.7342 193.055 59.7342C193.828 59.7342 194.36 60.266 194.36 60.9913ZM191.798 71.29V63.2154H194.312V71.29H191.798Z" fill="white"/>
<path d="M202.339 71.0482C201.904 71.2416 201.033 71.4351 200.115 71.4351C197.503 71.4351 195.859 69.8395 195.859 67.3252C195.859 64.956 197.455 63.022 200.453 63.022C201.13 63.022 201.855 63.1187 202.387 63.3121L202 65.1495C201.71 65.0044 201.275 64.9077 200.598 64.9077C199.293 64.9077 198.422 65.8264 198.422 67.1802C198.422 68.6307 199.389 69.4527 200.647 69.4527C201.227 69.4527 201.71 69.356 202.097 69.2109L202.339 71.0482Z" fill="white"/>
<path d="M210.463 69.3076C210.463 70.0812 210.511 70.8065 210.608 71.2416H208.335L208.19 70.4197H208.142C207.61 71.0482 206.788 71.3867 205.821 71.3867C204.177 71.3867 203.209 70.1779 203.209 68.9208C203.209 66.8417 205.095 65.8263 207.948 65.8263V65.7296C207.948 65.2945 207.706 64.6659 206.498 64.6659C205.676 64.6659 204.805 64.956 204.273 65.2945L203.79 63.6989C204.37 63.4088 205.434 62.9736 206.933 62.9736C209.641 62.9736 210.463 64.5692 210.463 66.4549V69.3076ZM208.045 67.4703C206.739 67.4703 205.724 67.7604 205.724 68.7274C205.724 69.3559 206.159 69.6944 206.691 69.6944C207.32 69.6944 207.852 69.2592 207.997 68.7757C208.045 68.6307 208.045 68.4856 208.045 68.3406V67.4703Z" fill="white"/>
<path d="M212.494 65.778C212.494 64.7626 212.445 63.9407 212.445 63.2154H214.621L214.718 64.3275H214.766C215.105 63.7956 215.878 63.022 217.232 63.022C218.876 63.022 220.134 64.1341 220.134 66.5033V71.2417H217.619V66.7934C217.619 65.778 217.281 65.0528 216.362 65.0528C215.685 65.0528 215.25 65.5363 215.056 65.9714C215.008 66.1165 214.96 66.3582 214.96 66.6V71.2417H212.445V65.778H212.494Z" fill="white"/>
<path d="M228.838 69.3076C228.838 70.0812 228.886 70.8065 228.983 71.2416H226.71L226.565 70.4197H226.517C225.985 71.0482 225.163 71.3867 224.196 71.3867C222.551 71.3867 221.584 70.1779 221.584 68.9208C221.584 66.8417 223.47 65.8263 226.323 65.8263V65.7296C226.323 65.2945 226.081 64.6659 224.872 64.6659C224.05 64.6659 223.18 64.956 222.648 65.2945L222.165 63.6989C222.745 63.4088 223.809 62.9736 225.308 62.9736C228.016 62.9736 228.838 64.5692 228.838 66.4549V69.3076ZM226.42 67.4703C225.114 67.4703 224.099 67.7604 224.099 68.7274C224.099 69.3559 224.534 69.6944 225.066 69.6944C225.695 69.6944 226.226 69.2592 226.372 68.7757C226.42 68.6307 226.42 68.4856 226.42 68.3406V67.4703Z" fill="white"/>
<path d="M217.377 13.2206C211.381 13.0756 202.194 13.0756 202.194 13.0756V49.5804H210.801V36.8642H215.975C218.828 36.8642 221.681 36.0422 224.002 34.3983C226.226 32.8027 228.354 30.2885 228.886 26.3237C229.95 17.3788 223.373 13.3657 217.377 13.2206ZM215.975 30.6753H210.511V19.4579C217.813 19.4579 219.312 20.1832 219.844 24.7765C220.424 29.3698 215.975 30.6753 215.975 30.6753Z" fill="white"/>
<path d="M8.0884 25.6984C5.44492 18.6587 6.41483 12.1138 11.3404 6.44401C16.1329 0.907432 22.4088 -1.07128 29.5215 0.545937C36.5581 2.14412 41.1224 6.69135 43.3094 13.5978C43.2904 13.6358 43.2714 13.6549 43.2334 13.6739C43.0812 13.6549 42.9291 13.6168 42.7769 13.6168C37.7372 13.6168 32.6785 13.6168 27.6387 13.6168C27.3535 13.6168 27.0872 13.6929 26.8019 13.731C26.7069 13.712 26.5928 13.6929 26.4977 13.6549H26.4406C23.5689 13.3505 21.4199 14.5491 20.6212 16.8512C20.2978 17.8025 20.2978 18.7539 20.3549 19.7432C20.3359 21.7219 20.3359 23.7006 20.3169 25.6984V25.7935C19.7463 25.7745 19.1758 25.7364 18.6243 25.7364C15.087 25.7174 11.5877 25.7174 8.0884 25.6984Z" fill="#E95128"/>
<path d="M43.3094 13.5978C45.4584 13.6168 47.6074 13.6739 49.7755 13.6358C50.5362 13.6168 50.7074 13.8642 50.7074 14.6062C50.6883 23.5484 50.6883 32.4716 50.6883 41.4139C50.6883 45.9421 48.0258 48.9672 43.5376 49.0813C37.49 49.2336 31.4423 49.1004 25.3946 49.0813C25.2615 49.0813 25.1474 49.0433 25.0143 49.0243C25.0333 48.9862 25.0523 48.9482 25.0713 48.9101C25.0523 48.9101 25.0143 48.9291 24.9952 48.9291C28.2473 47.9017 30.092 45.7137 30.4343 42.289C30.4343 40.6718 30.4534 39.0737 30.4343 37.4564C30.4343 36.9047 30.6245 36.6003 31.1951 36.4481C32.4883 36.0866 33.7054 35.5538 34.8275 34.8499C40.1334 31.5584 43.1763 26.7828 43.937 20.6184C44.2223 18.2972 44.0891 15.957 43.2333 13.7119C43.2524 13.6739 43.2904 13.6358 43.3094 13.5978Z" fill="#7EB92A"/>
<path d="M8.08835 25.6983C11.5876 25.7174 15.0869 25.7174 18.5862 25.7364C19.1567 25.7364 19.7273 25.7744 20.2788 25.7935C20.2978 26.3642 20.3358 26.935 20.3358 27.5058C20.3358 33.9176 20.3358 40.3294 20.3358 46.7411C20.3358 47.5212 20.3739 48.3203 20.3929 49.1004C13.9078 49.1004 7.42273 49.1004 0.937645 49.1004C0.481217 49.1004 0.00577158 49.2335 0.00577158 48.4535C0.0438072 43.1452 -0.0702998 37.8179 0.0818429 32.5097C0.19595 28.5522 3.25782 25.8315 7.23255 25.7554C7.51782 25.7554 7.80308 25.7174 8.08835 25.6983Z" fill="#329FDA"/>
<path d="M20.3929 49.1004C20.3739 48.3203 20.3359 47.5212 20.3359 46.7411C20.3359 40.3294 20.3359 33.9176 20.3359 27.5058C20.3359 26.935 20.2978 26.3642 20.2788 25.7935V25.6983C23.2266 25.8696 26.1553 25.7364 29.1031 25.7744C30.3583 25.7935 30.3583 25.7744 30.3583 26.9921C30.3773 32.0911 30.3963 37.171 30.3963 42.27C30.073 45.6947 28.2283 47.8827 24.9572 48.9101C23.683 49.1574 22.3708 48.9672 21.0776 49.1004C20.8684 49.1004 20.6401 49.1004 20.3929 49.1004Z" fill="#FDFEFD"/>
<path d="M21.1156 49.1004C22.4088 48.9672 23.721 49.1575 24.9952 48.9101C25.0143 48.9101 25.0333 48.8911 25.0713 48.8911C25.0523 48.9292 25.0333 48.9672 25.0143 49.0053C23.702 49.1765 22.4088 49.1955 21.1156 49.1004Z" fill="#329FDA"/>
<path d="M30.4343 42.27C30.4153 37.171 30.4153 32.0911 30.3963 26.9921C30.3963 25.7744 30.3773 25.7935 29.1411 25.7744C26.1933 25.7364 23.2646 25.8696 20.3168 25.6983C20.3359 23.7196 20.3359 21.7409 20.3549 19.7432C20.6021 20.2759 20.8113 20.8467 21.1156 21.3604C22.4468 23.5674 25.2425 24.3475 27.5816 23.2059C29.9018 22.0834 30.9858 19.3436 30.111 16.9463C29.5215 15.3291 28.2853 14.4159 26.8019 13.75C27.0872 13.7119 27.3534 13.6358 27.6387 13.6358C32.6784 13.6358 37.7372 13.6358 42.7769 13.6358C42.929 13.6358 43.0812 13.6739 43.2333 13.6929C44.0891 15.938 44.2222 18.2782 43.937 20.5993C43.1763 26.7638 40.1144 31.5393 34.8274 34.8308C33.7054 35.5348 32.4882 36.0675 31.195 36.429C30.6245 36.5812 30.4343 36.8856 30.4343 37.4374C30.4533 39.0546 30.4343 40.6718 30.4343 42.27Z" fill="#FAB719"/>
<path d="M26.7829 13.75C28.2663 14.435 29.5025 15.3482 30.092 16.9464C30.9669 19.3437 29.8828 22.0834 27.5627 23.206C25.2045 24.3475 22.4279 23.5675 21.0966 21.3604C20.7923 20.8467 20.5831 20.276 20.3359 19.7432C20.2788 18.7729 20.2788 17.8216 20.6021 16.8703C21.4009 14.5491 23.5499 13.3505 26.4216 13.6739L26.4406 13.712L26.4787 13.6739C26.5928 13.712 26.6878 13.731 26.7829 13.75Z" fill="#FDFEFD"/>
<path d="M26.48 13.6932L26.441 13.7322L26.4215 13.6932C26.4215 13.6736 26.48 13.6932 26.48 13.6932Z" fill="#FAB719"/>
</svg>
